<svg height="512pt" viewBox="0 0 512 512" width="512pt" xmlns="http://www.w3.org/2000/svg"><path d="m301 91v-91h-90v91h-51.300781l96.300781 96.300781 96.300781-96.300781zm0 0" fill="#7fe881"/><path d="m451 211v301h-240l-30-51.699219v-166.800781l30-82.5zm0 0" fill="#ffb64c"/><path d="m102.25 230.6875-41.25-19.6875-61-90h155.363281l55.636719 90-31.875 18.75zm0 0" fill="#ff9100"/><path d="m356.636719 121-55.636719 90 82.5 18.75 67.5-18.75 61-90zm0 0" fill="#ff9100"/><path d="m352.300781 91-96.300781 96.300781v-187.300781h45v91zm0 0" fill="#5bc980"/><path d="m256 211h195v301h-195zm0 0" fill="#ff9100"/><path d="m211 512h-150v-301h150zm0 0" fill="#ffd396"/><path d="m331 271v30h-70.199219s-1.199219 0-4.800781 0h-15v-30h15 4.800781zm0 0" fill="#ffd396"/><g fill="#ffb64c"><path d="m361 271h30v30h-30zm0 0"/><path d="m271 421h120v30h-120zm0 0"/><path d="m301 361h90v30h-90zm0 0"/><path d="m331 271v30h-70.199219s-1.199219 0-4.800781 0v-30h4.800781zm0 0"/></g></svg>