<svg height="512pt" viewBox="0 0 512 512" width="512pt" xmlns="http://www.w3.org/2000/svg"><g fill="#7c8388"><path d="m331 76h30v150h-30zm0 0"/><path d="m301 226h-30v-83.789062l-34.394531-34.394532 21.210937-21.210937 43.183594 43.183593zm0 0"/><path d="m421 226h-30v-96.210938l43.183594-43.183593 21.210937 21.210937-34.394531 34.394532zm0 0"/></g><path d="m331 286h30v165h-30zm0 0" fill="#575f64"/><path d="m257.816406 425.394531-21.210937-21.210937 34.394531-34.394532v-53.789062h30v66.210938zm0 0" fill="#575f64"/><path d="m434.183594 425.394531-43.183594-43.183593v-96.210938h30v83.789062l34.394531 34.394532zm0 0" fill="#575f64"/><path d="m512 274.601562-81.898438 61.199219-28.5-28.5-30 30-30-30-23.699218 23.699219h-82.5l7.796875-75 4.5-45h222l30 45zm0 0" fill="#ffb64c"/><path d="m135 121c-74.398438 0-135 60.597656-135 135 0 74.398438 60.601562 135 135 135s135-60.601562 135-135c0-74.402344-60.601562-135-135-135zm-30 180c-24.902344 0-45-20.101562-45-45 0-24.902344 20.097656-45 45-45s45 20.097656 45 45c0 24.898438-20.097656 45-45 45zm0 0" fill="#ffb64c"/><path d="m512 274.601562-81.898438 61.199219-28.5-28.5-30 30-30-30-23.699218 23.699219h-82.5l7.796875-75h256.5zm0 0" fill="#ff9100"/><path d="m270 256c0 74.398438-60.601562 135-135 135s-135-60.601562-135-135h60c0 24.898438 20.097656 45 45 45s45-20.101562 45-45zm0 0" fill="#ff9100"/><path d="m226 481c-24.8125 0-45-20.1875-45-45s20.1875-45 45-45 45 20.1875 45 45-20.1875 45-45 45zm0 0" fill="#5bc980"/><path d="m346 512c-24.8125 0-45-20.1875-45-45s20.1875-45 45-45 45 20.1875 45 45-20.1875 45-45 45zm0 0" fill="#5bc980"/><path d="m467 481c-24.8125 0-45-20.1875-45-45s20.1875-45 45-45 45 20.1875 45 45-20.1875 45-45 45zm0 0" fill="#5bc980"/><path d="m226 121c-24.8125 0-45-20.1875-45-45s20.1875-45 45-45 45 20.1875 45 45-20.1875 45-45 45zm0 0" fill="#7fe881"/><path d="m346 90c-24.8125 0-45-20.1875-45-45s20.1875-45 45-45 45 20.1875 45 45-20.1875 45-45 45zm0 0" fill="#7fe881"/><path d="m467 121c-24.8125 0-45-20.1875-45-45s20.1875-45 45-45 45 20.1875 45 45-20.1875 45-45 45zm0 0" fill="#7fe881"/></svg>