<svg height="512pt" viewBox="0 0 512 512" width="512pt" xmlns="http://www.w3.org/2000/svg"><path d="m512 0v121c-16.214844 8.472656-10.339844 5.339844-26.398438 14.097656 16.214844 9.585938 10.410157 6.089844 26.398438 15.902344v90c-16.582031 13.265625-10.578125 8.511719-27.300781 21.597656 16.601562 5.054688 10.734375 3.246094 27.300781 8.402344v120h-512v-120c12.5-7.351562 8.101562-4.738281 20.699219-12.300781-12.816407-10.621094-8.164063-6.640625-20.699219-17.699219v-90c11-8.433594 7.019531-5.265625 17.699219-14.101562-10.667969-9.5625-6.90625-6.183594-17.699219-15.898438v-121h151c7.925781 14.773438 5.085938 9.550781 13.199219 24.300781 10.3125-14.734375 6.65625-9.449219 16.800781-24.300781h150c10.949219 17.152344 7.015625 10.882812 17.699219 28.199219 7.671875-17.167969 4.9375-10.894531 12.300781-28.199219zm0 0" fill="#ff641a"/><g fill="#f03800"><path d="m512 0v121c-16.214844 8.472656-10.339844 5.339844-26.398438 14.097656 16.214844 9.585938 10.410157 6.089844 26.398438 15.902344v90c-16.582031 13.265625-10.578125 8.511719-27.300781 21.597656 16.601562 5.054688 10.734375 3.246094 27.300781 8.402344v120h-256v-391h75c10.949219 17.152344 7.015625 10.882812 17.699219 28.199219 7.671875-17.167969 4.9375-10.894531 12.300781-28.199219zm0 0"/><path d="m512 121v30h-512v-30h151v-121h30v121h150v-121h30v121zm0 0"/><path d="m0 241h512v30h-512zm0 0"/></g><path d="m512 121v30h-256v-30h75v-121h30v121zm0 0" fill="#cd0000"/><path d="m256 241h256v30h-256zm0 0" fill="#cd0000"/><path d="m380.800781 225.097656-12-17.097656-12.300781 16.800781c-2.097656 2.699219-4.199219 5.699219-6.300781 8.097657-24-58.5-80.101563-125.699219-82.800781-128.699219l-11.398438-13.800781-11.398438 13.800781c-2.699218 3-58.800781 70.199219-82.800781 128.699219-2.101562-2.402344-4.199219-5.398438-6.300781-8.101563l-12.300781-16.800781-12 17.101562c-25.5 36.601563-40.199219 80.402344-40.199219 120.902344 0 90.898438 74.097656 166 165 166s165-75.101562 165-166c0-40.5-14.699219-84.300781-40.199219-120.902344zm0 0" fill="#ffd396"/><path d="m421 346c0 90.898438-74.097656 166-165 166v-421.601562l11.398438 13.800781c2.699218 3 58.800781 70.199219 82.800781 128.699219 2.101562-2.402344 4.199219-5.398438 6.300781-8.101563l12.300781-16.800781 12 17.101562c25.5 36.601563 40.199219 80.402344 40.199219 120.902344zm0 0" fill="#ffb64c"/><path d="m266.199219 275.199219-10.199219-9.898438-10.199219 9.898438c-10.800781 10.199219-64.800781 63-64.800781 100.800781 0 41.398438 33.601562 75 75 75s75-33.601562 75-75c0-37.800781-54-90.601562-64.800781-100.800781zm0 0" fill="#ffb64c"/><path d="m331 376c0 41.398438-33.601562 75-75 75v-185.699219l10.199219 9.898438c10.800781 10.199219 64.800781 63 64.800781 100.800781zm0 0" fill="#ff9100"/></svg>