<svg height="512pt" viewBox="-31 0 512 512" width="512pt" xmlns="http://www.w3.org/2000/svg"><path d="m30 136h390v60h-390zm0 0" fill="#575f64"/><path d="m30 316h390v60h-390zm0 0" fill="#575f64"/><path d="m225 136h195v60h-195zm0 0" fill="#32393f"/><path d="m225 316h195v60h-195zm0 0" fill="#32393f"/><path d="m0 0v151h450v-151zm0 0" fill="#7c8388"/><path d="m0 181v150h450v-150zm0 0" fill="#7c8388"/><path d="m0 361v151h450v-151zm0 0" fill="#7c8388"/><g fill="#575f64"><path d="m225 0h225v151h-225zm0 0"/><path d="m225 181h225v150h-225zm0 0"/><path d="m225 361h225v151h-225zm0 0"/></g><path d="m60 61h30v30h-30zm0 0" fill="#7fe881"/><path d="m120 61h30v30h-30zm0 0" fill="#7fe881"/><path d="m180 61h30v30h-30zm0 0" fill="#7fe881"/><path d="m300 61h90v30h-90zm0 0" fill="#32393f"/><path d="m60 241h30v30h-30zm0 0" fill="#7fe881"/><path d="m120 241h30v30h-30zm0 0" fill="#7fe881"/><path d="m180 241h30v30h-30zm0 0" fill="#7fe881"/><path d="m300 241h90v30h-90zm0 0" fill="#32393f"/><path d="m60 421h30v30h-30zm0 0" fill="#7fe881"/><path d="m120 421h30v30h-30zm0 0" fill="#7fe881"/><path d="m180 421h30v30h-30zm0 0" fill="#7fe881"/><path d="m300 421h90v30h-90zm0 0" fill="#32393f"/></svg>